PathFileType	4	(X/Y/Z)	RBDS027static.trc
DataRate	CameraRate	NumFrames	NumMarkers	Units	OrigDataRate	OrigDataStartFrame	OrigNumFrames
150.000000	150.000000	4	48	mm	150.000000	93	150
Frame#	Time	L.Ankle			L.Ankle.Medial			L.ASIS			L.GTR			L.Heel.Bottom			L.Heel.Lateral			L.Heel.Top			L.HF			L.Iliac.Crest			L.Knee			L.Knee.Medial			L.MT1			L.MT2			L.MT5			L.PSIS			L.Shank.Bottom.Lateral			L.Shank.Bottom.Medial			L.Shank.Top.Lateral			L.Shank.Top.Medial			L.Thigh.Bottom.Lateral			L.Thigh.Bottom.Medial			L.Thigh.Top.Lateral			L.Thigh.Top.Medial			L.TT			R.Ankle			R.Ankle.Medial			R.ASIS			R.GTR			R.Heel.Bottom			R.Heel.Lateral			R.Heel.Top			R.HF			R.Iliac.Crest			R.Knee			R.Knee.Medial			R.MT1			R.MT2			R.MT5			R.PSIS			R.Shank.Bottom.Lateral			R.Shank.Bottom.Medial			R.Shank.Top.Lateral			R.Shank.Top.Medial			R.Thigh.Bottom.Lateral			R.Thigh.Bottom.Medial			R.Thigh.Top.Lateral			R.Thigh.Top.Medial			R.TT			
		X1	Y1	Z1	X2	Y2	Z2	X3	Y3	Z3	X4	Y4	Z4	X5	Y5	Z5	X6	Y6	Z6	X7	Y7	Z7	X8	Y8	Z8	X9	Y9	Z9	X10	Y10	Z10	X11	Y11	Z11	X12	Y12	Z12	X13	Y13	Z13	X14	Y14	Z14	X15	Y15	Z15	X16	Y16	Z16	X17	Y17	Z17	X18	Y18	Z18	X19	Y19	Z19	X20	Y20	Z20	X21	Y21	Z21	X22	Y22	Z22	X23	Y23	Z23	X24	Y24	Z24	X25	Y25	Z25	X26	Y26	Z26	X27	Y27	Z27	X28	Y28	Z28	X29	Y29	Z29	X30	Y30	Z30	X31	Y31	Z31	X32	Y32	Z32	X33	Y33	Z33	X34	Y34	Z34	X35	Y35	Z35	X36	Y36	Z36	X37	Y37	Z37	X38	Y38	Z38	X39	Y39	Z39	X40	Y40	Z40	X41	Y41	Z41	X42	Y42	Z42	X43	Y43	Z43	X44	Y44	Z44	X45	Y45	Z45	X46	Y46	Z46	X47	Y47	Z47	X48	Y48	Z48	

94	0.62	711.093505859375	96.12840270996094	1045.97216796875	728.53564453125	100.9829635620117	1125.494506835938	810.0115356445313	920.8065185546875	1084.869384765625	740.7803344726563	834.99462890625	1044.499755859375	637.2022094726563	33.21496200561523	1083.954467773438	669.312255859375	55.27112197875977	1040.918090820313	649.561279296875	81.91754913330078	1086.441040039063	701.1585693359375	417.9620056152344	1036.764038085938	753.9020385742188	993.64111328125	1061.625366210938	713.0972900390625	475.1090087890625	1046.75439453125	704.7805786132813	462.5663146972656	1167.776977539063	853.0780639648438	52.68137359619141	1128.14501953125	860.8172607421875	65.15316772460938	1082.542114257813	821.701904296875	48.44873428344727	1017.63330078125	656.4739990234375	953.1126708984375	1180.050659179688	695.390869140625	160.8428039550781	1035.840942382813	660.0606079101563	154.9022216796875	1078.412475585938	671.3631591796875	237.3686676025391	1028.449462890625	640.79833984375	233.361328125	1072.947265625	703.0545043945313	587.1377563476563	1028.162963867188	651.1151123046875	585.6976928710938	1077.576171875	698.6207275390625	697.1421508789063	1030.667602539063	651.8170166015625	696.1634521484375	1080.566040039063	760.1148681640625	397.0600280761719	1088.108032226563	708.9083251953125	97.01694488525391	1405.336791992188	732.7120971679688	111.1121444702148	1328.59423828125	827.678466796875	929.0595092773438	1352.23681640625	759.2577514648438	842.2321166992188	1404.130126953125	640.0072021484375	37.57745742797852	1369.7578125	672.6554565429688	55.16159820556641	1410.91748046875	649.19140625	82.77006530761719	1369.726318359375	725.4081420898438	427.6965942382813	1419.23193359375	773.0211791992188	1006.786804199219	1373.873657226563	724.21435546875	488.4503784179688	1410.29833984375	719.4423828125	471.1441955566406	1290.55615234375	852.888916015625	51.61410903930664	1316.76708984375	860.313720703125	67.68074798583984	1366.869995117188	826.186767578125	47.54056167602539	1432.64453125	665.7908935546875	955.3557739257813	1277.997192382813	696.454833984375	159.7686309814453	1413.00341796875	663.480224609375	166.0218963623047	1374.328857421875	687.1163940429688	242.5524444580078	1431.501586914063	652.4575805664063	244.1529541015625	1390.341552734375	729.5804443359375	574.1879272460938	1425.854858398438	669.7075805664063	574.954345703125	1382.78662109375	725.5738525390625	683.9813842773438	1427.29736328125	669.77197265625	684.9837036132813	1385.476928710938	777.8804931640625	407.8498229980469	1367.567260742188	
95	0.6266666666666667	711.0933837890625	96.11315155029297	1045.954467773438	728.5354614257813	100.9830932617188	1125.494873046875	809.96923828125	920.8113403320313	1084.833740234375	740.7251586914063	834.9978637695313	1044.475219726563	637.1947631835938	33.20563507080078	1083.964477539063	669.3175048828125	55.26260757446289	1040.90966796875	649.5621948242188	81.90065765380859	1086.44091796875	701.2000122070313	417.9476318359375	1036.721923828125	753.8722534179688	993.6448974609375	1061.609375	713.1378173828125	475.0914306640625	1046.728881835938	704.8215942382813	462.5565490722656	1167.751586914063	853.06396484375	52.69387054443359	1128.136108398438	860.7957153320313	65.16670989990234	1082.5380859375	821.6920166015625	48.45331954956055	1017.621948242188	656.4359130859375	953.1228637695313	1180.022583007813	695.4047241210938	160.8325347900391	1035.833984375	660.075439453125	154.8828125	1078.42236328125	671.3760375976563	237.3562622070313	1028.44140625	640.8102416992188	233.3574829101563	1072.93212890625	703.0579223632813	587.1339111328125	1028.126953125	651.1337280273438	585.6729736328125	1077.551635742188	698.5905151367188	697.1525268554688	1030.638427734375	651.7972412109375	696.1554565429688	1080.537963867188	760.1401977539063	397.056396484375	1088.081176757813	708.9003295898438	97.04102325439453	1405.33154296875	732.720947265625	111.1025161743164	1328.585205078125	827.6312866210938	929.0557250976563	1352.208618164063	759.2113037109375	842.2250366210938	1404.105834960938	640.0006103515625	37.58271026611328	1369.747314453125	672.6455078125	55.17658996582031	1410.917236328125	649.1825561523438	82.76655578613281	1369.725463867188	725.3961791992188	427.7056884765625	1419.212768554688	772.9953002929688	1006.77783203125	1373.843872070313	724.19189453125	488.4515380859375	1410.287231445313	719.4290161132813	471.1491394042969	1290.532348632813	852.8850708007813	51.62309265136719	1316.772583007813	860.3057861328125	67.68222808837891	1366.874267578125	826.176513671875	47.5486946105957	1432.644409179688	665.7625122070313	955.3549194335938	1277.9638671875	696.4454345703125	159.7737884521484	1412.995239257813	663.4763793945313	166.0187835693359	1374.324462890625	687.1046752929688	242.5572814941406	1431.4951171875	652.4492797851563	244.1477813720703	1390.328979492188	729.53125	574.1988525390625	1425.8212890625	669.66552734375	574.952392578125	1382.74267578125	725.5281372070313	683.9794921875	1427.263549804688	669.729248046875	684.9788818359375	1385.439697265625	777.8743896484375	407.85009765625	1367.541259765625	
96	0.6333333333333334	711.0951538085938	96.11146545410156	1045.945556640625	728.5550537109375	100.9892501831055	1125.487548828125	809.9308471679688	920.8306274414063	1084.800537109375	740.6944580078125	835.0089721679688	1044.442260742188	637.2000732421875	33.20517730712891	1083.94482421875	669.3051147460938	55.24741363525391	1040.909301757813	649.5653686523438	81.89398956298828	1086.44189453125	701.2246704101563	417.9477844238281	1036.670288085938	753.8463745117188	993.66259765625	1061.576416015625	713.1455688476563	475.0954284667969	1046.713012695313	704.8640747070313	462.5385437011719	1167.73046875	853.059814453125	52.70125579833984	1128.14453125	860.8035888671875	65.17329406738281	1082.53466796875	821.6909790039063	48.46263885498047	1017.625427246094	656.3934936523438	953.1311645507813	1179.989990234375	695.411376953125	160.8225250244141	1035.824951171875	660.0826416015625	154.8775482177734	1078.401245117188	671.39111328125	237.3545227050781	1028.433837890625	640.819580078125	233.3516082763672	1072.927124023438	703.0659790039063	587.1262817382813	1028.08984375	651.148193359375	585.6558837890625	1077.518432617188	698.5712890625	697.1470947265625	1030.601196289063	651.7793579101563	696.1373291015625	1080.502807617188	760.1495971679688	397.0498657226563	1088.070678710938	708.8905029296875	97.03398895263672	1405.338745117188	732.7210693359375	111.1018447875977	1328.588012695313	827.5992431640625	929.0521240234375	1352.169799804688	759.1552734375	842.2265014648438	1404.0576171875	640.000732421875	37.58131408691406	1369.741943359375	672.6456909179688	55.17303466796875	1410.920654296875	649.1967163085938	82.75762176513672	1369.723754882813	725.3822631835938	427.6929016113281	1419.190063476563	772.9678955078125	1006.775207519531	1373.816162109375	724.1795654296875	488.4664611816406	1410.265380859375	719.4235229492188	471.1400146484375	1290.504516601563	852.877197265625	51.62310791015625	1316.773681640625	860.3035888671875	67.68276977539063	1366.87548828125	826.1787109375	47.53920745849609	1432.64892578125	665.7179565429688	955.3668823242188	1277.935424804688	696.4398803710938	159.7827606201172	1412.991821289063	663.4737548828125	166.0141143798828	1374.310546875	687.0999145507813	242.5566864013672	1431.4794921875	652.4444580078125	244.1414642333984	1390.323486328125	729.496337890625	574.1908569335938	1425.794921875	669.63037109375	574.9313354492188	1382.712036132813	725.47021484375	683.9653930664063	1427.212036132813	669.6844482421875	684.97412109375	1385.394653320313	777.8582153320313	407.8615417480469	1367.540893554688	
97	0.64	711.1011962890625	96.11094665527344	1045.939575195313	728.5557861328125	101.000114440918	1125.483642578125	809.892578125	920.8272705078125	1084.77001953125	740.65380859375	835.0048217773438	1044.419311523438	637.2005004882813	33.1910514831543	1083.95166015625	669.3067016601563	55.2459602355957	1040.907836914063	649.5645141601563	81.88129425048828	1086.428466796875	701.25830078125	417.9283447265625	1036.642944335938	753.8099975585938	993.6661376953125	1061.548828125	713.1756591796875	475.0811767578125	1046.693603515625	704.8713989257813	462.5321655273438	1167.712524414063	853.0504760742188	52.70843505859375	1128.144775390625	860.7991333007813	65.16500091552734	1082.528442382813	821.6966552734375	48.4623908996582	1017.623596191406	656.3597412109375	953.1473999023438	1179.95947265625	695.4255981445313	160.8078918457031	1035.823120117188	660.09033203125	154.8698425292969	1078.408081054688	671.4063720703125	237.3345947265625	1028.426879882813	640.8270263671875	233.3431243896484	1072.920166015625	703.0744018554688	587.1181030273438	1028.057861328125	651.1573486328125	585.6410522460938	1077.48046875	698.5475463867188	697.1466064453125	1030.582275390625	651.7675170898438	696.1231689453125	1080.463500976563	760.1695556640625	397.0450134277344	1088.0595703125	708.896728515625	97.03266906738281	1405.336181640625	732.7222290039063	111.1069641113281	1328.5791015625	827.5673828125	929.0510864257813	1352.141479492188	759.1231689453125	842.2160034179688	1403.864013671875	640.008056640625	37.57718276977539	1369.747314453125	672.6466674804688	55.16799926757813	1410.915405273438	649.1900634765625	82.76936340332031	1369.707763671875	725.37158203125	427.6990966796875	1419.167602539063	772.9467163085938	1006.765563964844	1373.799926757813	724.1533203125	488.4529724121094	1410.234497070313	719.4085083007813	471.1418762207031	1290.482666015625	852.878662109375	51.62646865844727	1316.76513671875	860.3087768554688	67.68690490722656	1366.868774414063	826.1797485351563	47.54370498657227	1432.6513671875	665.685791015625	955.3621215820313	1277.903686523438	696.4415893554688	159.7715301513672	1412.983276367188	663.4678955078125	166.0153503417969	1374.298950195313	687.0968017578125	242.5635986328125	1431.466552734375	652.4375610351563	244.1437530517578	1390.306396484375	729.4588012695313	574.1895751953125	1425.760498046875	669.5975952148438	574.9320068359375	1382.674926757813	725.43603515625	683.96923828125	1427.17333984375	669.641845703125	684.9656982421875	1385.353759765625	777.8524780273438	407.8623046875	1367.51708984375	
